<svg width="560" height="560" viewBox="0 0 560 560" fill="none" xmlns="http://www.w3.org/2000/svg">
<path d="M479.5 95.418H79.5C44.9883 95.4297 17.0156 123.406 17 157.918V391.289C17.0156 425.801 44.9883 453.781 79.5 453.789H479.5C514.012 453.781 541.984 425.801 542 391.289V157.918C541.984 123.406 514.012 95.4297 479.5 95.418V95.418ZM79.5 120.418H479.5C497.504 120.465 512.953 133.242 516.375 150.914L279.5 282.918L42.625 150.914C46.0469 133.242 61.4961 120.465 79.5 120.418V120.418ZM479.5 428.668H79.5C58.8164 428.605 42.0586 411.852 42 391.168V179.168L273.375 308.164C275.25 309.195 277.355 309.758 279.5 309.793C281.652 309.816 283.766 309.254 285.625 308.164L517 179.168V391.168C516.984 411.871 500.203 428.648 479.5 428.668Z" fill="white"/>
</svg>
