<svg width="640" height="640" viewBox="0 0 640 640" fill="none" xmlns="http://www.w3.org/2000/svg">
<path d="M199.25 310C234.941 310 263.875 281.062 263.875 245.375C263.875 209.684 234.941 180.75 199.25 180.75C163.559 180.75 134.625 209.684 134.625 245.375C134.672 281.047 163.578 309.953 199.25 310ZM199.25 205.875C221.133 205.875 238.875 223.613 238.875 245.5C238.875 267.383 221.133 285.125 199.25 285.125C177.363 285.125 159.625 267.383 159.625 245.5C159.633 223.617 177.367 205.883 199.25 205.875Z" fill="white"/>
<path d="M199.25 333.875C172.809 333.68 147.43 344.293 129 363.25C110.25 382.375 100 408.375 100 436.625C100.02 443.52 105.605 449.105 112.5 449.125H286C292.895 449.105 298.48 443.52 298.5 436.625C298.5 408.375 288.25 382.375 269.5 363.25C251.07 344.293 225.695 333.68 199.25 333.875ZM125.875 424.125C128.016 407.781 135.383 392.57 146.875 380.75C160.707 366.754 179.57 358.875 199.25 358.875C218.93 358.875 237.793 366.754 251.625 380.75C263.094 392.582 270.461 407.789 272.625 424.125H125.875Z" fill="white"/>
<path d="M557.5 93.75H82.5C47.9883 93.7656 20.0156 121.738 20 156.25V473.75C20.0156 508.262 47.9883 536.234 82.5 536.25H557.5C592.012 536.234 619.984 508.262 620 473.75V156.25C619.984 121.738 592.012 93.7656 557.5 93.75ZM595 473.75C594.941 494.434 578.184 511.191 557.5 511.25H82.5C61.8164 511.191 45.0586 494.434 45 473.75V156.25C45.0586 135.566 61.8164 118.809 82.5 118.75H557.5C578.184 118.809 594.941 135.566 595 156.25V473.75Z" fill="white"/>
<path d="M526.75 302.5H381.125C374.223 302.5 368.625 308.094 368.625 315C368.625 321.906 374.223 327.5 381.125 327.5H526.75C533.652 327.5 539.25 321.906 539.25 315C539.25 308.094 533.652 302.5 526.75 302.5Z" fill="white"/>
<path d="M526.75 382.5H381.125C374.223 382.5 368.625 388.094 368.625 395C368.625 401.906 374.223 407.5 381.125 407.5H526.75C533.652 407.5 539.25 401.906 539.25 395C539.25 388.094 533.652 382.5 526.75 382.5Z" fill="white"/>
<path d="M526.75 222.5H381.125C374.223 222.5 368.625 228.094 368.625 235C368.625 241.906 374.223 247.5 381.125 247.5H526.75C533.652 247.5 539.25 241.906 539.25 235C539.25 228.094 533.652 222.5 526.75 222.5Z" fill="white"/>
</svg>
