<svg width="512" height="512" viewBox="0 0 512 512" fill="none" xmlns="http://www.w3.org/2000/svg">
<path d="M332.441 127.27C327.777 122.609 321.578 120.039 314.984 120.039C308.391 120.039 302.191 122.609 297.531 127.27C292.867 131.934 290.297 138.133 290.297 144.727C290.297 151.32 292.867 157.52 297.527 162.18L339.582 204.234C344.242 208.895 350.445 211.465 357.039 211.465C363.633 211.465 369.828 208.895 374.492 204.234L464.344 114.383C469.008 109.719 471.574 103.52 471.574 96.9297C471.574 90.3359 469.008 84.1367 464.344 79.4727C459.684 74.8086 453.48 72.2422 446.887 72.2422C440.293 72.2422 434.094 74.8086 429.434 79.4727L419.527 89.3789C412.187 83.7773 404.133 79.2852 395.598 76.0352V64.8047C395.598 51.1914 384.523 40.1172 370.914 40.1172H293.508V31.5469C293.508 14.1523 279.355 0 261.961 0H175.637C158.242 0 144.09 14.1523 144.09 31.5469V67.1914C144.09 76.8555 151.953 84.7188 161.617 84.7188H275.98C285.645 84.7188 293.508 76.8555 293.508 67.1914V55.1406H370.91C376.238 55.1406 380.574 59.4766 380.574 64.8047V71.7227C374.391 70.4727 368.063 69.8086 361.66 69.8086C309.047 69.8086 266.242 112.613 266.242 165.227C266.242 217.84 309.047 260.645 361.66 260.645C368.078 260.645 374.406 260 380.574 258.762V487.316C380.574 492.645 376.238 496.977 370.91 496.977H66.6836C61.3555 496.977 57.0234 492.645 57.0234 487.316V64.8047C57.0234 59.4766 61.3555 55.1406 66.6836 55.1406H116.617C120.766 55.1406 124.129 51.7773 124.129 47.6289C124.129 43.4805 120.766 40.1172 116.617 40.1172H66.6836C53.0742 40.1172 42 51.1914 42 64.8047V487.316C42 500.926 53.0742 512 66.6836 512H370.914C384.523 512 395.598 500.926 395.598 487.316V254.418C407.559 249.867 418.59 242.922 428.027 233.785C445.871 216.508 456.172 193.344 457.023 168.559C457.164 164.414 453.922 160.937 449.773 160.793C445.656 160.656 442.152 163.895 442.008 168.043C440.809 202.93 417.867 231.734 386.363 241.785C385.93 241.887 385.508 242.02 385.109 242.195C377.695 244.426 369.824 245.621 361.66 245.621C317.332 245.621 281.266 209.555 281.266 165.227C281.266 120.898 317.332 84.832 361.66 84.832C378.688 84.832 395.145 90.2148 408.797 100.109L357.039 151.871L332.441 127.27ZM278.484 67.1914C278.484 68.5742 277.363 69.6953 275.98 69.6953H161.617C160.234 69.6953 159.113 68.5742 159.113 67.1914V31.5469C159.113 22.4336 166.523 15.0234 175.637 15.0234H261.961C271.07 15.0234 278.484 22.4336 278.484 31.5469V67.1914ZM440.059 90.0977C441.883 88.2695 444.309 87.2656 446.887 87.2656C449.469 87.2656 451.895 88.2734 453.723 90.0977C457.488 93.8633 457.488 99.9961 453.723 103.762L363.867 193.613C362.043 195.438 359.617 196.445 357.035 196.445C354.453 196.445 352.027 195.438 350.203 193.613L308.148 151.559C306.324 149.734 305.32 147.309 305.32 144.727C305.32 142.145 306.324 139.719 308.152 137.895C309.977 136.07 312.402 135.062 314.984 135.062C317.562 135.062 319.992 136.07 321.816 137.895L351.727 167.805C354.66 170.738 359.414 170.738 362.348 167.805L440.059 90.0977Z" fill="white"/>
<path d="M246.438 188.547H154.91C150.762 188.547 147.402 191.91 147.402 196.059C147.402 200.203 150.762 203.566 154.91 203.566H246.438C250.586 203.566 253.949 200.203 253.949 196.059C253.949 191.91 250.586 188.547 246.438 188.547Z" fill="white"/>
<path d="M140.574 111.012H90.0312C85.8828 111.012 82.5195 114.375 82.5195 118.523C82.5195 122.672 85.8828 126.035 90.0312 126.035H140.574C144.723 126.035 148.086 122.672 148.086 118.523C148.086 114.375 144.723 111.012 140.574 111.012Z" fill="white"/>
<path d="M154.91 238.414H246.438C250.586 238.414 253.949 235.051 253.949 230.902C253.949 226.758 250.586 223.395 246.438 223.395H154.91C150.762 223.395 147.402 226.758 147.402 230.902C147.402 235.051 150.762 238.414 154.91 238.414Z" fill="white"/>
<path d="M278.055 279.648H154.91C150.762 279.648 147.402 283.012 147.402 287.16C147.402 291.309 150.762 294.672 154.91 294.672H278.055C282.203 294.672 285.566 291.309 285.566 287.16C285.566 283.012 282.203 279.648 278.055 279.648Z" fill="white"/>
<path d="M154.91 329.52H216.484C220.633 329.52 223.992 326.156 223.992 322.008C223.992 317.859 220.633 314.496 216.484 314.496H154.91C150.762 314.496 147.402 317.859 147.402 322.008C147.402 326.156 150.762 329.52 154.91 329.52Z" fill="white"/>
<path d="M154.91 385.871H246.438C250.586 385.871 253.949 382.508 253.949 378.359C253.949 374.211 250.586 370.848 246.438 370.848H154.91C150.762 370.848 147.402 374.211 147.402 378.359C147.402 382.508 150.762 385.871 154.91 385.871Z" fill="white"/>
<path d="M154.91 420.715H278.055C282.203 420.715 285.566 417.352 285.566 413.203C285.566 409.059 282.203 405.695 278.055 405.695H154.91C150.762 405.695 147.402 409.059 147.402 413.203C147.402 417.352 150.762 420.715 154.91 420.715Z" fill="white"/>
<path d="M105.973 182.035C89.2422 182.035 75.6328 195.645 75.6328 212.375C75.6328 229.105 89.2422 242.715 105.973 242.715C122.703 242.715 136.312 229.105 136.312 212.375C136.312 195.645 122.703 182.035 105.973 182.035ZM105.973 227.691C97.5273 227.691 90.6562 220.82 90.6562 212.375C90.6562 203.93 97.5273 197.059 105.973 197.059C114.418 197.059 121.289 203.93 121.289 212.375C121.289 220.82 114.418 227.691 105.973 227.691Z" fill="white"/>
<path d="M105.973 274.242C89.2422 274.242 75.6328 287.855 75.6328 304.582C75.6328 321.312 89.2422 334.922 105.973 334.922C122.703 334.922 136.312 321.312 136.312 304.582C136.312 287.855 122.703 274.242 105.973 274.242V274.242ZM105.973 319.902C97.5273 319.902 90.6562 313.031 90.6562 304.586C90.6562 296.137 97.5273 289.266 105.973 289.266C114.418 289.266 121.289 296.137 121.289 304.586C121.289 313.031 114.418 319.902 105.973 319.902Z" fill="white"/>
<path d="M105.973 365.441C89.2422 365.441 75.6328 379.051 75.6328 395.781C75.6328 412.512 89.2422 426.121 105.973 426.121C122.703 426.121 136.312 412.512 136.312 395.781C136.312 379.051 122.703 365.441 105.973 365.441V365.441ZM105.973 411.098C97.5273 411.098 90.6562 404.227 90.6562 395.781C90.6562 387.336 97.5273 380.465 105.973 380.465C114.418 380.465 121.289 387.336 121.289 395.781C121.289 404.227 114.418 411.098 105.973 411.098V411.098Z" fill="white"/>
</svg>
